<svg xmlns="http://www.w3.org/2000/svg" version="1.1" xmlns:xlink="http://www.w3.org/1999/xlink" xmlns:svgjs="http://svgjs.dev/svgjs" viewBox="0 0 5.761377824573387 1.8962959611917358"><g transform="matrix(1,0,0,1,2.228692492073895,0.3760901680958678)"><g><path d=" M -0.13974 0.75582 Q -0.17136 0.75582 -0.19533 0.7400100000000001 Q -0.21930000000000002 0.7242000000000001 -0.2295 0.69258 Q -0.2295 0.69054 -0.23001000000000002 0.6885 Q -0.23052 0.6864600000000001 -0.23052 0.68442 Q -0.23052 0.67728 -0.22848000000000002 0.67218 Q -0.22644000000000003 0.66708 -0.22338000000000002 0.66708 Q -0.21624000000000002 0.66708 -0.21216000000000002 0.6864600000000001 Q -0.20196000000000003 0.71196 -0.18156 0.7196100000000001 Q -0.16116000000000003 0.72726 -0.13566 0.72726 Q -0.1275 0.72726 -0.11934 0.72624 Q -0.11118 0.72522 -0.10404000000000001 0.72318 Q -0.058140000000000004 0.7089000000000001 -0.01785 0.67167 Q 0.02244 0.63444 0.057120000000000004 0.58191 Q 0.0918 0.52938 0.12087 0.46869000000000005 Q 0.14994000000000002 0.40800000000000003 0.1734 0.34629 Q 0.19686 0.28458 0.21471 0.22898999999999997 Q 0.23256000000000002 0.1734 0.24480000000000002 0.1326 Q 0.21624000000000002 0.15911999999999998 0.18054 0.17237999999999998 Q 0.14484000000000002 0.18563999999999997 0.11424000000000001 0.18972 L 0.11322000000000002 0.18972 Q 0.10200000000000001 0.18972 0.10200000000000001 0.18156 Q 0.10200000000000001 0.1734 0.11424000000000001 0.17237999999999998 Q 0.14382 0.16931999999999997 0.17442000000000002 0.14943 Q 0.20502 0.12954 0.23205 0.09843000000000002 Q 0.25908000000000003 0.06731999999999994 0.27540000000000003 0.03059999999999996 Q 0.27744 0.025499999999999967 0.28917000000000004 0.021930000000000005 Q 0.3009 0.018359999999999932 0.31314000000000003 0.018359999999999932 Q 0.32436000000000004 0.018359999999999932 0.33303000000000005 0.021419999999999995 Q 0.3417 0.024479999999999946 0.33966 0.03059999999999996 Q 0.29886 0.12954 0.26061 0.23153999999999997 Q 0.22236 0.33354 0.17442000000000002 0.43248 Q 0.19482000000000002 0.40698 0.21675000000000003 0.38199 Q 0.23868 0.357 0.26622 0.32844 L 0.26622 0.31518 Q 0.26622 0.30702 0.26622 0.3009 Q 0.26622 0.29478 0.26724000000000003 0.28866 Q 0.26928 0.28356 0.27336000000000005 0.27642 Q 0.27744 0.26928 0.28152 0.26928 Q 0.2856 0.26928 0.28866 0.28254 Q 0.28866 0.28662 0.28917000000000004 0.28968 Q 0.28968000000000005 0.29274 0.2907 0.29682 L 0.29274 0.29478 Q 0.30192 0.2856 0.32742000000000004 0.26316 Q 0.35292 0.24072 0.38811 0.21011999999999997 Q 0.4233 0.17952 0.46206 0.14738999999999997 Q 0.50082 0.11526000000000003 0.5355000000000001 0.08618999999999999 Q 0.57018 0.05711999999999995 0.59568 0.037739999999999996 Q 0.6211800000000001 0.018359999999999932 0.62934 0.01427999999999996 Q 0.6446400000000001 0.006120000000000014 0.65739 0.0030599999999999516 Q 0.6701400000000001 0 0.67932 0 Q 0.69564 0 0.7032900000000001 0.006630000000000025 Q 0.71094 0.013259999999999939 0.71094 0.022440000000000015 Q 0.71094 0.04079999999999995 0.6874800000000001 0.053039999999999976 Q 0.65688 0.06731999999999994 0.61506 0.09128999999999998 Q 0.5732400000000001 0.11526000000000003 0.52734 0.14433 Q 0.48144000000000003 0.1734 0.43758 0.20450999999999997 Q 0.39372 0.23562 0.35700000000000004 0.2652 Q 0.32028 0.29478 0.29784 0.31926 Q 0.31314000000000003 0.37332 0.32742000000000004 0.41208 Q 0.3417 0.45084 0.36261000000000004 0.48603 Q 0.38352 0.52122 0.4182 0.56508 Q 0.44166000000000005 0.59262 0.46614000000000005 0.60894 Q 0.49062000000000006 0.62526 0.51 0.62526 Q 0.52734 0.62526 0.5339700000000001 0.61761 Q 0.5406000000000001 0.6099600000000001 0.5406000000000001 0.59874 Q 0.5406000000000001 0.58446 0.53346 0.56916 Q 0.52632 0.55386 0.5191800000000001 0.54366 Q 0.5140800000000001 0.5355 0.5140800000000001 0.53244 Q 0.5140800000000001 0.52836 0.5191800000000001 0.52836 Q 0.5293800000000001 0.52836 0.53856 0.53754 Q 0.54366 0.54264 0.55233 0.55998 Q 0.561 0.57732 0.561 0.59058 Q 0.561 0.6109800000000001 0.5467200000000001 0.62526 Q 0.53244 0.63954 0.5140800000000001 0.64617 Q 0.49572000000000005 0.6528 0.48246000000000006 0.6528 Q 0.43452 0.6528 0.39831000000000005 0.62526 Q 0.36210000000000003 0.59772 0.33711 0.55335 Q 0.31212 0.50898 0.2958 0.45645 Q 0.27948 0.40392 0.27030000000000004 0.35394000000000003 Q 0.22644000000000003 0.40494 0.1836 0.45696000000000003 Q 0.14076 0.50898 0.11424000000000001 0.54468 Q 0.09486 0.57732 0.06834000000000001 0.61404 Q 0.04182 0.65076 0.00969 0.68289 Q -0.02244 0.71502 -0.05967 0.7354200000000001 Q -0.09690000000000001 0.75582 -0.13974 0.75582 M 0.65145706640625 0.75072 Q 0.6341170664062501 0.75072 0.61881706640625 0.74664 Q 0.57699706640625 0.73236 0.56679706640625 0.68952 Q 0.56577706640625 0.6864600000000001 0.56577706640625 0.6803400000000001 Q 0.56577706640625 0.66606 0.57189706640625 0.66606 Q 0.57699706640625 0.66606 0.5841370664062501 0.68442 Q 0.5912770664062501 0.7129800000000001 0.61881706640625 0.7191000000000001 Q 0.62493706640625 0.72114 0.6341170664062501 0.72216 Q 0.6432970664062501 0.72318 0.65145706640625 0.72318 Q 0.6891970664062501 0.72318 0.72336706640625 0.70176 Q 0.7575370664062501 0.6803400000000001 0.7866070664062501 0.64719 Q 0.81567706640625 0.61404 0.8391370664062501 0.57885 Q 0.8625970664062501 0.54366 0.8778970664062501 0.5151 Q 0.92277706640625 0.42942 0.9533770664062501 0.34119 Q 0.9839770664062502 0.25296 1.01253706640625 0.15708 Q 0.9829570664062501 0.18359999999999999 0.9472570664062501 0.19685999999999998 Q 0.9115570664062501 0.21011999999999997 0.87993706640625 0.21317999999999998 L 0.8789170664062501 0.21317999999999998 Q 0.86871706640625 0.21317999999999998 0.86871706640625 0.20604 Q 0.86871706640625 0.19788 0.88095706640625 0.19584000000000001 Q 0.9105370664062501 0.19074000000000002 0.9421570664062501 0.17085 Q 0.9737770664062501 0.15095999999999998 1.00080706640625 0.12035999999999997 Q 1.0278370664062502 0.08975999999999995 1.04211706640625 0.05406 Q 1.04415706640625 0.04793999999999998 1.05639706640625 0.04437000000000002 Q 1.0686370664062501 0.04079999999999995 1.0808770664062501 0.04079999999999995 Q 1.0920970664062501 0.04079999999999995 1.10076706640625 0.04386000000000001 Q 1.10943706640625 0.04691999999999996 1.10739706640625 0.05406 Q 1.1033170664062502 0.06528 1.10076706640625 0.08874000000000004 Q 1.09821706640625 0.11219999999999997 1.0961770664062502 0.12647999999999998 Q 1.0931170664062502 0.14483999999999997 1.0931170664062502 0.17952 Q 1.0931170664062502 0.22338000000000002 1.09821706640625 0.28254 Q 1.1033170664062502 0.3417 1.1150470664062502 0.40392 Q 1.12677706640625 0.46614 1.1451370664062501 0.5202 Q 1.16349706640625 0.57426 1.1895070664062501 0.60741 Q 1.21551706640625 0.64056 1.25019706640625 0.64056 Q 1.2858970664062501 0.64056 1.31751706640625 0.60588 Q 1.34913706640625 0.5712 1.3746370664062502 0.5151 Q 1.4001370664062502 0.459 1.4184970664062502 0.39321 Q 1.43685706640625 0.32742 1.44654706640625 0.26469 Q 1.45623706640625 0.20195999999999997 1.45623706640625 0.15504 Q 1.45623706640625 0.12954 1.45317706640625 0.11117999999999995 Q 1.4490970664062501 0.08363999999999994 1.44144706640625 0.06374999999999997 Q 1.43379706640625 0.04386000000000001 1.42563706640625 0.022440000000000015 L 1.42563706640625 0.021419999999999995 Q 1.42563706640625 0.017340000000000022 1.43379706640625 0.010709999999999997 Q 1.4419570664062502 0.0040799999999999725 1.44603706640625 0.0030599999999999516 Q 1.4613370664062502 0.0030599999999999516 1.4740870664062502 0.017340000000000022 Q 1.4868370664062502 0.03161999999999998 1.49805706640625 0.052529999999999966 Q 1.5092770664062503 0.07343999999999995 1.52049706640625 0.09384000000000003 Q 1.5317170664062503 0.11424000000000001 1.54497706640625 0.12647999999999998 Q 1.5531370664062503 0.13361999999999996 1.5577270664062501 0.13566 Q 1.56231706640625 0.1377 1.5725170664062502 0.1377 L 1.5786370664062501 0.13463999999999998 Q 1.58679706640625 0.13463999999999998 1.5898570664062501 0.13617 Q 1.5929170664062502 0.1377 1.5939370664062502 0.14586 Q 1.5939370664062502 0.15402 1.5862870664062503 0.15911999999999998 Q 1.5786370664062501 0.16421999999999998 1.5704770664062502 0.16625999999999996 Q 1.5572170664062501 0.16625999999999996 1.5368170664062502 0.15249000000000001 Q 1.5164170664062502 0.13872 1.5062170664062502 0.13056 Q 1.5072370664062502 0.13667999999999997 1.5072370664062502 0.14279999999999998 Q 1.5072370664062502 0.14892 1.5072370664062502 0.15504 Q 1.5072370664062502 0.21114 1.4929570664062501 0.27999 Q 1.47867706640625 0.34884 1.4536870664062502 0.4182 Q 1.4286970664062502 0.48756 1.3955470664062501 0.5457000000000001 Q 1.3623970664062501 0.60384 1.32363706640625 0.63954 Q 1.28487706640625 0.6752400000000001 1.2430570664062501 0.6752400000000001 Q 1.19409706640625 0.6752400000000001 1.15992706640625 0.64566 Q 1.1257570664062502 0.6160800000000001 1.1028070664062501 0.5661 Q 1.0798570664062501 0.51612 1.06659706640625 0.45594 Q 1.05333706640625 0.39576 1.0482370664062501 0.33303 Q 1.04313706640625 0.2703 1.04313706640625 0.21624 Q 1.01151706640625 0.29886 0.9804070664062501 0.3723 Q 0.9492970664062501 0.44574 0.90849706640625 0.5202 Q 0.89013706640625 0.55386 0.86412706640625 0.59313 Q 0.83811706640625 0.6324000000000001 0.80547706640625 0.66861 Q 0.77283706640625 0.70482 0.73407706640625 0.72777 Q 0.69531706640625 0.75072 0.65145706640625 0.75072" fill="#382d5e" fill-rule="nonzero"></path></g><g><path d=" M 0.03485625 1.144115625 L 0.03485625 1.135535625 L 0.07775624999999999 1.114085625 L 0.07775624999999999 0.8202206249999999 L 0.03485625 0.798770625 L 0.03485625 0.7901906249999999 L 0.17428124999999997 0.7901906249999999 Q 0.23755874999999999 0.7901906249999999 0.27590062499999995 0.813249375 Q 0.3142425 0.836308125 0.3142425 0.886179375 Q 0.3142425 0.915673125 0.294133125 0.9384637499999999 Q 0.27402374999999995 0.961254375 0.23943562499999999 0.974660625 Q 0.2048475 0.988066875 0.16141124999999998 0.988066875 L 0.12601874999999998 0.988066875 L 0.12601874999999998 1.114085625 L 0.17428124999999997 1.135535625 L 0.17428124999999997 1.144115625 L 0.03485625 1.144115625 M 0.12601874999999998 0.819684375 L 0.12601874999999998 0.958573125 L 0.17159999999999997 0.958573125 Q 0.21396374999999998 0.958573125 0.23809499999999997 0.93953625 Q 0.26222625 0.920499375 0.26222625 0.890469375 Q 0.26222625 0.852931875 0.23782687499999997 0.836308125 Q 0.21342749999999996 0.819684375 0.16784624999999997 0.819684375 L 0.12601874999999998 0.819684375 M 0.5635990118408203 1.149478125 Q 0.5249890118408203 1.149478125 0.49254588684082024 1.13580375 Q 0.4601027618408203 1.1221293749999999 0.4359715118408203 1.0977299999999999 Q 0.41184026184082023 1.073330625 0.3984340118408203 1.040083125 Q 0.38502776184082027 1.006835625 0.38502776184082027 0.967153125 Q 0.38502776184082027 0.927470625 0.3984340118408203 0.894223125 Q 0.41184026184082023 0.860975625 0.4359715118408203 0.83657625 Q 0.4601027618408203 0.812176875 0.49254588684082024 0.7985025 Q 0.5249890118408203 0.784828125 0.5635990118408203 0.784828125 Q 0.6022090118408203 0.784828125 0.6349202618408203 0.7985025 Q 0.6676315118408203 0.812176875 0.6917627618408202 0.83657625 Q 0.7158940118408202 0.860975625 0.7293002618408202 0.894223125 Q 0.7427065118408203 0.927470625 0.7427065118408203 0.967153125 Q 0.7427065118408203 1.006835625 0.7293002618408202 1.040083125 Q 0.7158940118408202 1.073330625 0.6917627618408202 1.0977299999999999 Q 0.6676315118408203 1.1221293749999999 0.6349202618408203 1.13580375 Q 0.6022090118408203 1.149478125 0.5635990118408203 1.149478125 M 0.5748602618408203 1.122665625 Q 0.6091802618408202 1.122665625 0.6351883868408202 1.105505625 Q 0.6611965118408203 1.0883456249999999 0.6759433868408202 1.057243125 Q 0.6906902618408202 1.026140625 0.6906902618408202 0.983776875 Q 0.6906902618408202 0.931760625 0.6724577618408203 0.8928825 Q 0.6542252618408202 0.8540043749999999 0.6233908868408202 0.832554375 Q 0.5925565118408203 0.811104375 0.5544827618408202 0.811104375 Q 0.5201627618408202 0.811104375 0.49361838684082027 0.82799625 Q 0.46707401184082026 0.844888125 0.45205901184082026 0.875990625 Q 0.43704401184082026 0.9070931250000001 0.43704401184082026 0.949456875 Q 0.43704401184082026 1.001473125 0.45554463684082025 1.040619375 Q 0.47404526184082024 1.079765625 0.5051477618408202 1.101215625 Q 0.5362502618408203 1.122665625 0.5748602618408203 1.122665625 M 0.8204664276123046 1.144115625 L 0.8204664276123046 1.135535625 L 0.8633664276123045 1.114085625 L 0.8633664276123045 0.8202206249999999 L 0.8204664276123046 0.798770625 L 0.8204664276123046 0.7901906249999999 L 0.9588189276123046 0.7901906249999999 Q 1.0151251776123045 0.7901906249999999 1.0475683026123046 0.8135175 Q 1.0800114276123045 0.8368443750000001 1.0800114276123045 0.877599375 Q 1.0800114276123045 0.907629375 1.0596339276123046 0.9314925000000001 Q 1.0392564276123046 0.9553556249999999 1.0054726776123046 0.967689375 L 1.1073601776123045 1.116230625 L 1.1427526776123045 1.135535625 L 1.1427526776123045 1.144115625 L 1.0655326776123046 1.144115625 L 0.9615001776123046 0.9816318749999999 L 0.9116289276123045 0.9816318749999999 L 0.9116289276123045 1.113549375 L 0.9518476776123046 1.135535625 L 0.9518476776123046 1.144115625 L 0.8204664276123046 1.144115625 M 0.9464851776123046 0.819684375 L 0.9116289276123045 0.819684375 L 0.9116289276123045 0.9521381250000001 L 0.9497026776123045 0.9521381250000001 Q 0.9834864276123045 0.9521381250000001 1.0057408026123045 0.93310125 Q 1.0279951776123046 0.9140643749999999 1.0279951776123046 0.884570625 Q 1.0279951776123046 0.854540625 1.0060089276123045 0.8371124999999999 Q 0.9840226776123046 0.819684375 0.9464851776123046 0.819684375 M 1.2430319512939452 1.144115625 L 1.2430319512939452 1.135535625 L 1.2966569512939452 1.114085625 L 1.2966569512939452 0.819684375 L 1.2092482012939452 0.819684375 L 1.1727832012939452 0.898513125 L 1.1642032012939452 0.898513125 L 1.1642032012939452 0.7901906249999999 L 1.4773732012939451 0.7901906249999999 L 1.4773732012939451 0.898513125 L 1.4687932012939453 0.898513125 L 1.4323282012939451 0.819684375 L 1.3449194512939453 0.819684375 L 1.3449194512939453 1.114085625 L 1.3985444512939451 1.135535625 L 1.3985444512939451 1.144115625 L 1.2430319512939452 1.144115625 M 1.5417292236328124 1.144115625 L 1.5417292236328124 1.135535625 L 1.5846292236328123 1.114085625 L 1.5846292236328123 0.8202206249999999 L 1.5417292236328124 0.798770625 L 1.5417292236328124 0.7901906249999999 L 1.7985929736328123 0.7901906249999999 L 1.7985929736328123 0.882425625 L 1.7900129736328123 0.882425625 L 1.7567654736328122 0.819684375 L 1.6328917236328124 0.819684375 L 1.6328917236328124 0.946775625 L 1.7186917236328123 0.946775625 L 1.7455042236328122 0.902266875 L 1.7540842236328122 0.902266875 L 1.7540842236328122 1.019705625 L 1.7455042236328122 1.019705625 L 1.7186917236328123 0.976269375 L 1.6328917236328124 0.976269375 L 1.6328917236328124 1.114085625 L 1.6811542236328123 1.135535625 L 1.6811542236328123 1.144115625 L 1.5417292236328124 1.144115625 M 2.057609055175781 1.149478125 Q 2.018999055175781 1.149478125 1.986555930175781 1.13580375 Q 1.954112805175781 1.1221293749999999 1.929981555175781 1.0977299999999999 Q 1.905850305175781 1.073330625 1.892444055175781 1.040083125 Q 1.879037805175781 1.006835625 1.879037805175781 0.967153125 Q 1.879037805175781 0.927470625 1.892444055175781 0.894223125 Q 1.905850305175781 0.860975625 1.929981555175781 0.83657625 Q 1.954112805175781 0.812176875 1.986555930175781 0.7985025 Q 2.018999055175781 0.784828125 2.057609055175781 0.784828125 Q 2.096219055175781 0.784828125 2.128930305175781 0.7985025 Q 2.161641555175781 0.812176875 2.185772805175781 0.83657625 Q 2.209904055175781 0.860975625 2.223310305175781 0.894223125 Q 2.236716555175781 0.927470625 2.236716555175781 0.967153125 Q 2.236716555175781 1.006835625 2.223310305175781 1.040083125 Q 2.209904055175781 1.073330625 2.185772805175781 1.0977299999999999 Q 2.161641555175781 1.1221293749999999 2.128930305175781 1.13580375 Q 2.096219055175781 1.149478125 2.057609055175781 1.149478125 M 2.068870305175781 1.122665625 Q 2.103190305175781 1.122665625 2.129198430175781 1.105505625 Q 2.155206555175781 1.0883456249999999 2.169953430175781 1.057243125 Q 2.184700305175781 1.026140625 2.184700305175781 0.983776875 Q 2.184700305175781 0.931760625 2.166467805175781 0.8928825 Q 2.148235305175781 0.8540043749999999 2.117400930175781 0.832554375 Q 2.086566555175781 0.811104375 2.048492805175781 0.811104375 Q 2.014172805175781 0.811104375 1.987628430175781 0.82799625 Q 1.9610840551757809 0.844888125 1.9460690551757809 0.875990625 Q 1.9310540551757809 0.9070931250000001 1.9310540551757809 0.949456875 Q 1.9310540551757809 1.001473125 1.949554680175781 1.040619375 Q 1.968055305175781 1.079765625 1.999157805175781 1.101215625 Q 2.030260305175781 1.122665625 2.068870305175781 1.122665625 M 2.314476470947265 1.144115625 L 2.314476470947265 1.135535625 L 2.3573764709472655 1.114085625 L 2.3573764709472655 0.8202206249999999 L 2.314476470947265 0.798770625 L 2.314476470947265 0.7901906249999999 L 2.4539014709472653 0.7901906249999999 L 2.4539014709472653 0.798770625 L 2.4056389709472654 0.8202206249999999 L 2.4056389709472654 1.1146218749999999 L 2.535947720947265 1.1146218749999999 L 2.5724127209472654 1.025068125 L 2.580992720947265 1.025068125 L 2.580992720947265 1.144115625 L 2.314476470947265 1.144115625 M 2.6560726959228513 1.144115625 L 2.6560726959228513 1.135535625 L 2.6989726959228513 1.114085625 L 2.6989726959228513 0.8202206249999999 L 2.6560726959228513 0.798770625 L 2.6560726959228513 0.7901906249999999 L 2.7901351959228515 0.7901906249999999 L 2.7901351959228515 0.798770625 L 2.747235195922851 0.8202206249999999 L 2.747235195922851 1.114085625 L 2.7901351959228515 1.135535625 L 2.7901351959228515 1.144115625 L 2.6560726959228513 1.144115625 M 3.0491518011474605 1.149478125 Q 3.0105418011474603 1.149478125 2.9780986761474604 1.13580375 Q 2.9456555511474605 1.1221293749999999 2.9215243011474605 1.0977299999999999 Q 2.8973930511474606 1.073330625 2.8839868011474605 1.040083125 Q 2.8705805511474605 1.006835625 2.8705805511474605 0.967153125 Q 2.8705805511474605 0.927470625 2.8839868011474605 0.894223125 Q 2.8973930511474606 0.860975625 2.9215243011474605 0.83657625 Q 2.9456555511474605 0.812176875 2.9780986761474604 0.7985025 Q 3.0105418011474603 0.784828125 3.0491518011474605 0.784828125 Q 3.0877618011474603 0.784828125 3.1204730511474605 0.7985025 Q 3.1531843011474603 0.812176875 3.1773155511474602 0.83657625 Q 3.2014468011474606 0.860975625 3.2148530511474602 0.894223125 Q 3.2282593011474603 0.927470625 3.2282593011474603 0.967153125 Q 3.2282593011474603 1.006835625 3.2148530511474602 1.040083125 Q 3.2014468011474606 1.073330625 3.1773155511474602 1.0977299999999999 Q 3.1531843011474603 1.1221293749999999 3.1204730511474605 1.13580375 Q 3.0877618011474603 1.149478125 3.0491518011474605 1.149478125 M 3.0604130511474605 1.122665625 Q 3.0947330511474602 1.122665625 3.1207411761474604 1.105505625 Q 3.1467493011474605 1.0883456249999999 3.1614961761474603 1.057243125 Q 3.1762430511474604 1.026140625 3.1762430511474604 0.983776875 Q 3.1762430511474604 0.931760625 3.1580105511474605 0.8928825 Q 3.1397780511474602 0.8540043749999999 3.1089436761474603 0.832554375 Q 3.0781093011474603 0.811104375 3.0400355511474606 0.811104375 Q 3.0057155511474605 0.811104375 2.9791711761474606 0.82799625 Q 2.9526268011474603 0.844888125 2.9376118011474603 0.875990625 Q 2.9225968011474603 0.9070931250000001 2.9225968011474603 0.949456875 Q 2.9225968011474603 1.001473125 2.9410974261474605 1.040619375 Q 2.95959805114746 1.079765625 2.9907005511474605 1.101215625 Q 3.0218030511474603 1.122665625 3.0604130511474605 1.122665625" fill="#c84449" fill-rule="nonzero"></path></g><g clip-path="url(&quot;#SvgjsClipPath1001&quot;)"><g clip-path="url(&quot;#SvgjsClipPath10004b255e4c-af1a-44ac-8af1-a7873ac293c5&quot;)"><path d=" M -0.9017803061608818 1.1719310863409231 L -0.9017803061608818 1.1719310863409231 C -0.9268756454013494 1.1720376854346681 -0.950931142816867 1.1619147838073234 -0.9683993983814065 1.1438968077141864 L -1.0763162989015325 1.0340205221287508 C -1.1123727984412484 0.997165786995697 -1.1119014445576485 0.9381118790074868 -1.0752612454048271 0.9018373911844072 C -1.0378840159739635 0.8669792498316038 -0.9797321009140538 0.867576019769505 -0.9430781144604827 0.9031938885373135 L -0.8351612139403575 1.013070174122749 C -0.7991047144006411 1.0499249092558034 -0.799576068284241 1.1089788172440134 -0.8362162674370626 1.1452533050670932 C -0.8536998794499604 1.1624407942280919 -0.8772634356516611 1.1720287239929221 -0.9017803061608818 1.1719310863409231 Z M -1.009847928609108 0.9196225787002935 C -1.0225817508004096 0.9195970207714749 -1.0348155044085183 0.9245771328597311 -1.043911084359874 0.9334889960855611 C -1.0629960042856452 0.9526595878228244 -1.0629960042856452 0.9836504912746359 -1.043911084359874 1.002821083011899 L -0.9359941838397479 1.1128480905254357 C -0.9165659414702998 1.1312984625326172 -0.8860903392828583 1.1312984625326172 -0.86666209691341 1.1128480905254357 C -0.8476593556493275 1.093643640081884 -0.8476593556493275 1.0627204540426485 -0.8666620969134102 1.0435160035990974 L -0.9745789974335362 0.9336397180136621 C -0.9840109002849878 0.9243800622150063 -0.9967845123562832 0.9193249731825365 -1.0099986505372087 0.9196225787002933 Z" fill="#de0000" transform="matrix(1,0,0,1,0,0)" fill-rule="nonzero"></path></g><g clip-path="url(&quot;#SvgjsClipPath10004b255e4c-af1a-44ac-8af1-a7873ac293c5&quot;)"><path d=" M -0.7822578171769992 1.0905412451665266 C -0.8073206243523574 1.090635317928288 -0.8313533737491625 1.0805763617327928 -0.8488769093975239 1.0626576884678904 L -0.9569445318457506 0.9526306809543542 C -0.9929836458471111 0.9158273421575259 -0.9925121338219921 0.8568209801569486 -0.9558894783490446 0.820598271938111 C -0.918531745146471 0.7856025071582622 -0.8602694731078044 0.7861333706848104 -0.8235556254766006 0.8218040473629168 L -0.7156387249564744 0.9316803329483522 C -0.6981939994337258 0.9493019815421347 -0.6885784893511253 0.973204944459335 -0.6889609436826445 0.9979979813126753 C -0.6890526709797138 1.0228027965354927 -0.6990984109209695 1.0465324633156468 -0.7168445003812809 1.0638634638926967 C -0.7342541633087996 1.0810700215171978 -0.7577803433953685 1.0906648000317665 -0.7822578171769989 1.0905412451665266 Z M -0.8901747176971249 0.8382327375258971 C -0.9030887035153972 0.8382659884672549 -0.915477025032198 0.8433511510112689 -0.9246900392321931 0.8524005987673656 C -0.9437402563316901 0.8714678818902355 -0.9437402563316901 0.9023639587146327 -0.9246900392321931 0.9214312418375022 L -0.8167731387120671 1.0314582493510387 C -0.7975968719563569 1.0501019954005595 -0.7671696236282048 1.0504334469074021 -0.7475917737138302 1.032211858991542 C -0.7381827238130589 1.0231653628564077 -0.7327598082567863 1.0107468862325444 -0.7325195809037566 0.9976965374564742 C -0.7324406320263492 0.9847454278383324 -0.7374782133975464 0.9722868932644048 -0.7465367202171254 0.9630304939933055 L -0.8546043426653518 0.8528527645516685 C -0.8639420353786544 0.8432891797405366 -0.8768105682521747 0.8379999946187928 -0.8901747176971249 0.8382327375258964 Z" fill="#de0000" transform="matrix(1,0,0,1,0,0)" fill-rule="nonzero"></path></g><g clip-path="url(&quot;#SvgjsClipPath10004b255e4c-af1a-44ac-8af1-a7873ac293c5&quot;)"><path d=" M -0.6627353281931165 1.0091514039921297 L -0.6627353281931165 1.0091514039921297 C -0.6878167692569415 1.0091886317602095 -0.7118462799613441 0.9990766657171805 -0.7293544204136413 0.9811171253653931 L -0.837271320933767 0.8712408397799577 C -0.8547600780530986 0.853686606480365 -0.8644784986541103 0.829852044224253 -0.8642505460637986 0.8050739133437353 C -0.8640021492062944 0.7802714625040581 -0.8539191160904538 0.7565817556673808 -0.8362162674370608 0.7392084307637129 C -0.7989496202604722 0.7042146958429457 -0.7407236656453675 0.7048129077054299 -0.7041838584208187 0.7405649281166209 L -0.596116235972592 0.8502904917739557 C -0.5785931893975651 0.867933579873903 -0.5689216055894648 0.8918952004321742 -0.5692877327706609 0.9167588620663797 C -0.5694594298550137 0.9415332633572863 -0.5795576459657958 0.9652043505847095 -0.5973220113973987 0.982473622718301 C -0.6147501526675558 0.9996521631734759 -0.6382642401324814 1.009242009904563 -0.6627353281931165 1.0091514039921297 Z M -0.7706522287132425 0.7568428963515003 C -0.7835268543929561 0.7568509123371862 -0.7958774342715624 0.7619428180766111 -0.8050168283202093 0.7710107575929694 C -0.8145171071668205 0.7799308308704145 -0.8199616393163414 0.7923443641713216 -0.8200890211302834 0.8053753571999368 C -0.8203027550850448 0.8183518972529974 -0.8152449687021945 0.8308604012105837 -0.8060718818169152 0.8400414006631061 L -0.6981549812967891 0.9499176862485413 C -0.6890389852298189 0.9594953483655931 -0.6764098387673112 0.9649389459787433 -0.6631874939774187 0.9649898790586148 L -0.6631874939774187 0.9649898790586148 C -0.6503182875661133 0.9651050163268015 -0.6379401130230768 0.9600560240789838 -0.6288228943704515 0.9509727397452464 C -0.6193889433506996 0.9420684251955375 -0.6139534243196869 0.9297297969951382 -0.6137507015603778 0.9167588620663797 C -0.6135542490065413 0.9037855421323461 -0.6186094167118952 0.8912835144739438 -0.6277678408737464 0.8820928186032103 L -0.7359861852500738 0.7716136453053719 C -0.745070570549881 0.7622075826295507 -0.7575755799968971 0.7568793612129964 -0.7706522287132427 0.7568428963515003 Z" fill="#de0000" transform="matrix(1,0,0,1,0,0)" fill-rule="nonzero"></path></g><g clip-path="url(&quot;#SvgjsClipPath10004b255e4c-af1a-44ac-8af1-a7873ac293c5&quot;)"><path d=" M -1.0216042390009652 1.2533209275153196 C -1.046654317800276 1.2534214427675265 -1.0706608127329629 1.2432962544285702 -1.0880726092933894 1.225286648888583 L -1.1961402317416154 1.1154103633031478 C -1.232155540079697 1.0785143835108184 -1.2316168461662662 1.019460063250904 -1.1949344563168105 0.9832272323588037 C -1.1575572268859458 0.9483690910060006 -1.0994053118260365 0.9489658609439019 -1.0627513253724654 0.9845837297117103 L -0.9548344248523399 1.0944600152971455 C -0.9374437229569341 1.1120672810643266 -0.9277884018180864 1.135880123648338 -0.9280059216504095 1.160626941733368 C -0.9281428468740003 1.1854828297320479 -0.9383053239975618 1.2092315062186594 -0.9561909222052469 1.2264924243133897 C -0.9735666616250082 1.2437682847105735 -0.9971019604098931 1.2534210109403192 -1.021604239000965 1.2533209275153196 Z M -1.1293704175929906 1.0010124198746904 C -1.1422507742473011 1.0010684476009022 -1.1546134683214482 1.0060891050196608 -1.1638857391280588 1.0150295591880587 C -1.182953270625124 1.0341485182651136 -1.182953270625124 1.0650919651092408 -1.1638857391280588 1.0842109241862956 L -1.0559688386079324 1.1942379316998322 C -1.036653097296053 1.212823388538666 -1.0061032149215745 1.212823388538666 -0.9867874736096949 1.1942379316998322 C -0.977350437847984 1.185210954716354 -0.971922169079446 1.1727802192364023 -0.9717152807996219 1.159722610164764 C -0.9715595876823255 1.1468013257442982 -0.9766116589147914 1.1343612793761824 -0.9857324201129902 1.1252072886296953 L -1.0936493206331164 1.0153310030442602 C -1.1031043782345775 1.0058848574534744 -1.1160086178642368 1.000712271947915 -1.1293704175929906 1.00101241987469 Z" fill="#de0000" transform="matrix(1,0,0,1,0,0)" fill-rule="nonzero"></path></g><g clip-path="url(&quot;#SvgjsClipPath10004b255e4c-af1a-44ac-8af1-a7873ac293c5&quot;)"><path d=" M -1.1976474510226232 1.217901274411647 C -1.2221018341367849 1.2177589131488502 -1.2455488949960865 1.2081423766673849 -1.263060767818342 1.1910727712097162 C -1.278649637098425 1.1755690668308532 -1.288304039798644 1.1550867981187865 -1.2903414368045747 1.1331955508190341 C -1.3231071714309264 1.1424426914467172 -1.3583153908903822 1.133410517500419 -1.3825832568022252 1.1095322081072188 C -1.398302220846308 1.0940426197726283 -1.4080215712244273 1.0734824555112215 -1.410014647716558 1.0515042657884361 C -1.4186928024164147 1.0539589913541199 -1.4276739478780005 1.0551767737895887 -1.4366924289903882 1.055121592062854 C -1.4612652651851887 1.0552051408554668 -1.4848591015080574 1.0454964128053668 -1.5022564677142074 1.0281423669328218 C -1.5179758856205414 1.0127144447134393 -1.52769859753612 0.9922005910014503 -1.5296878586285407 0.9702651465421398 C -1.5623526090111182 0.9795961180931582 -1.5975122286370178 0.9706767383189937 -1.62177895669809 0.9469032476865257 C -1.6584840964355962 0.9107153978150423 -1.658956154988798 0.8516406417286624 -1.6228340101947953 0.8148708386702828 L -1.3373666783720037 0.5737157537091072 C -1.3279503521481728 0.565839643820685 -1.3139398158772675 0.5670520940748981 -1.3060165173270515 0.5764287484149205 C -1.3021770338549166 0.5809163303600035 -1.3002881139798954 0.5867510999287185 -1.300769206137919 0.592637403979829 C -1.3012502982959424 0.5985237080309388 -1.3040615816063688 0.6039743263777665 -1.308578790104764 0.6077789094598731 L -1.5926896245746485 0.8469746093557389 C -1.6102767633247361 0.8664379672559377 -1.6093450642220832 0.896318888476718 -1.5905795175812385 0.9146487550729684 C -1.5714089258439754 0.9337336749987389 -1.5404180223921637 0.9337336749987389 -1.5212474306549006 0.9146487550729684 C -1.5117784313961509 0.9060833480437999 -1.497814858667477 0.9047359857629632 -1.4868828310479327 0.9113328726547522 C -1.4791757618994614 0.9193558235324192 -1.4768765893398195 0.9311464520434044 -1.4810046758520041 0.9414772582748993 C -1.4896481162399857 0.9601732238018587 -1.4856726772727824 0.9822790738164545 -1.4710570285973554 0.9967922058878688 C -1.461609163741868 1.005648613637303 -1.449189099664411 1.0106488991749805 -1.4362402632060856 1.010809345201237 C -1.4232204863627822 1.0106299914302648 -1.4108263741525766 1.0051939773029819 -1.4018756635991179 0.9957371523911634 C -1.3923989369755359 0.9872614661488074 -1.3783888230107295 0.9862695996734229 -1.367812507848352 0.993325601541552 C -1.3604975807702715 1.0015474612774096 -1.3582444110046288 1.0131021780242953 -1.3619343526524235 1.0234699871616986 C -1.3698199617825721 1.0419661627267676 -1.3656405767876758 1.0634004372005923 -1.3513838176853716 1.0775791593498627 C -1.3421950962330702 1.0867831173518132 -1.3297233670510464 1.0919551298838952 -1.3167177742222025 1.0919551298838952 C -1.3037121813933594 1.0919551298838952 -1.2912404522113357 1.0867831173518132 -1.2820517307590338 1.0775791593498627 C -1.2727751276794015 1.0691886442442344 -1.2590623160894525 1.067958795671145 -1.2484407407925706 1.0745647207878486 C -1.2408538427584999 1.0826676672738005 -1.2387295694719709 1.0944691855322959 -1.2430147513809444 1.1047091064079955 C -1.250994738193954 1.1232927978168852 -1.2468116749438531 1.1448654525781197 -1.2324642164138924 1.1591197224523606 C -1.2208597279793731 1.170595523659252 -1.2042895318300304 1.1755156842906271 -1.1883026914803776 1.1722325301971246 C -1.176283189752891 1.1698225618048652 -1.1645712161002069 1.1775632340465818 -1.1620770759908499 1.189565551928709 C -1.160881196718262 1.1953653842233294 -1.1620568643755353 1.2014025834362294 -1.1653417098527732 1.206329851652086 C -1.1686265553300108 1.211257119867943 -1.173747174735275 1.214664351248849 -1.1795608196505352 1.215791167418237 C -1.1855102555396728 1.2170597381972765 -1.1915657721251938 1.217766215132254 -1.1976474510226232 1.2179012744116466 Z" fill="#47545e" transform="matrix(1,0,0,1,0,0)" fill-rule="nonzero"></path></g><g clip-path="url(&quot;#SvgjsClipPath10004b255e4c-af1a-44ac-8af1-a7873ac293c5&quot;)"><path d=" M -1.0422531431507662 0.7257941791627489 C -1.09019857012627 0.7245475477657857 -1.136288869454857 0.7070045272600949 -1.172929054814103 0.6760559428895069 C -1.2041284939309553 0.6511868247528859 -1.230655553276684 0.6287292574658763 -1.2500986820016793 0.6121498453747954 L -1.2582376661191188 0.6053673586102623 C -1.2653215967398532 0.599338481486233 -1.2683360353018682 0.5964747648523188 -1.2704461422952782 0.5943646578589085 C -1.2807027065043868 0.5867312830807214 -1.2833901825367489 0.5725073245679759 -1.276625741347408 0.5616579994610492 C -1.2735902317039258 0.5566567530956413 -1.26857569133381 0.5531778946521577 -1.2628281485838542 0.5520858615296662 C -1.2570806058338992 0.5509938284071747 -1.2511395946657893 0.5523911320583952 -1.246481355727262 0.5559305661932208 C -1.2439957062589921 0.5577893402725802 -1.241629704199351 0.559802959046743 -1.2393974251065276 0.5619594433172507 C -1.2375887619693182 0.5637681064544595 -1.2347250453354044 0.5663303792321718 -1.2286961682113744 0.5714549247875966 L -1.2207079060220356 0.5782374115521302 C -1.2014154992251413 0.5945153797870093 -1.1754913275918146 0.6166715032178172 -1.1442918884749629 0.641389899426338 C -1.1011735128634665 0.6844836563199133 -1.034062936572257 0.6922247832595503 -0.9822658157666728 0.6600794185108289 C -0.9672030269929791 0.647617979854843 -0.9578912243233424 0.6295389243792913 -0.9564923660614477 0.6100397383813848 C -0.9565388234589662 0.5977485635640067 -0.9614736432496127 0.5859809163709275 -0.9702080615186149 0.5773330799835262 L -1.045569025568982 0.5040822229265688 L -1.1881519695522773 0.36496588328959034 C -1.2104674370506703 0.34415041565405957 -1.239931026697426 0.33271034055312126 -1.2704461422952782 0.33301283453223474 C -1.2785626782902955 0.3329784711063493 -1.28665563202589 0.3338889284016032 -1.2945616507913957 0.33572582923804817 C -1.3060165173270515 0.33889098972816345 -1.3339000740256874 0.347482139629905 -1.3406825607902206 0.349592246623315 C -1.3676309254190937 0.35987230231713924 -1.3961074466642238 0.36557779494585985 -1.4249361185985312 0.36647310257059756 C -1.479292784744679 0.3660808087775936 -1.5305282084115754 0.3410175928712766 -1.5642031801636094 0.29834679106906575 C -1.572282509048176 0.28908024833415535 -1.5714091805406427 0.27503981309767017 -1.5622437950983001 0.26684590809601216 C -1.552909766484428 0.25888720265884024 -1.538932074785773 0.25982350736592696 -1.5307429121252465 0.2689560150894216 C -1.5057305557925402 0.3020955118146433 -1.4667547370720402 0.321750460397981 -1.425237562454733 0.3221608557089812 C -1.4013040023220316 0.3210205303410376 -1.3777240863657805 0.3159276759228405 -1.3554533097440924 0.30708866289890757 C -1.3479172133390558 0.304526390121195 -1.3183757154313118 0.29563379636325177 -1.3060165173270515 0.2920164700888339 C -1.2944687049015553 0.2892009869780903 -1.2826333361685598 0.28773421051118064 -1.2707475861514794 0.28764553417391187 C -1.228562562936439 0.28760682521648956 -1.187979157698612 0.3037970134762607 -1.1574046962197266 0.3328621126041333 L -1.0148217522364322 0.47197845224111057 C -0.9777441579236518 0.5080009930571865 -0.9465447188067995 0.5384468225335348 -0.9394607881860648 0.5456814750823703 C -0.9222746789111327 0.5626855955730511 -0.912612795197566 0.5858632604364944 -0.9126322849841335 0.6100397383813837 C -0.9140525523983765 0.6414636269924768 -0.9282003246564157 0.6709562906996211 -0.9518199862903252 0.6917310234119816 C -0.9763535971122055 0.7144687757336594 -1.0088152883035422 0.7266960127490634 -1.0422531431507662 0.7257941791627489 Z" fill="#de0000" transform="matrix(1,0,0,1,0,0)" fill-rule="nonzero"></path></g><g clip-path="url(&quot;#SvgjsClipPath10004b255e4c-af1a-44ac-8af1-a7873ac293c5&quot;)"><path d=" M -1.078727849751144 0.3712962042698216 C -1.0846729740099188 0.3712675427706225 -1.0903641555085188 0.3688826667140659 -1.0945536522017218 0.3646644394333892 C -1.103234554529792 0.3559583344646339 -1.103234554529792 0.341869661429091 -1.094553652201721 0.3331635564603356 C -1.063915975351131 0.3041022953583257 -1.0232882676001125 0.28791595760891636 -0.9810600403418682 0.2879469780301153 C -0.9693327949829685 0.2880417803404746 -0.9576535573759684 0.28945744550495983 -0.946243274950598 0.29216719201693536 C -0.9335826329901364 0.2956337963632524 -0.9141395042651417 0.30136122963108025 -0.8927369904748375 0.30723938482700897 C -0.8803777923705771 0.310705989173326 -0.877664797664764 0.31161032074193046 -0.8767604660961597 0.3120624865262324 C -0.8758561345275551 0.31251465231053493 -0.8748010810308502 0.3120624865262324 -0.8659084872729068 0.3150769250882475 C -0.8532287911270133 0.31930277777847094 -0.8399347342659629 0.32139111621258215 -0.8265700640386151 0.3212565241403779 C -0.7849871653194493 0.32097273045721475 -0.7459385450272675 0.3012252853380251 -0.7210647143681013 0.2679009615927174 C -0.7128379356361987 0.2588437865261455 -0.6988507420504757 0.25810407917305445 -0.6897145533231483 0.26624302038360936 C -0.6853272062699991 0.270174320171299 -0.6826861126683084 0.27569100779533545 -0.6823750039173271 0.2815737914502495 C -0.6820638951663462 0.2874565751051636 -0.6841083883941936 0.29322105818653144 -0.6880566121140403 0.29759318142856217 C -0.7217655672834464 0.34003851407651786 -0.7728226783528029 0.36501330484905586 -0.8270222298229175 0.3655687710019931 C -0.8442946612228606 0.3657580173237189 -0.8614883578722912 0.3632145710738031 -0.8779662415209657 0.3580326745969563 C -0.883101298750788 0.35705763275059893 -0.888143690101658 0.3556457631723551 -0.8930384343310391 0.35381246061013627 L -0.9049454666509968 0.35109946590432284 C -0.9261972585132001 0.3447691449240916 -0.9450374995257926 0.3393431555124654 -0.9570952537738511 0.33602727309424923 C -0.9648961844153564 0.33417366742923577 -0.9728913557425672 0.33326282512613536 -0.980909318413767 0.33331427838843586 C -1.0113810005757067 0.3330040371708795 -1.0408003382465876 0.34444788962267153 -1.0630527692286678 0.365267327145792 C -1.0673098620629142 0.36921509473795033 -1.0729225345186069 0.3713738149132163 -1.078727849751144 0.3712962042698216 Z" fill="#47545e" transform="matrix(1,0,0,1,0,0)" fill-rule="nonzero"></path></g><g clip-path="url(&quot;#SvgjsClipPath10004b255e4c-af1a-44ac-8af1-a7873ac293c5&quot;)"><path d=" M -0.5566270908101996 0.8368762401729904 C -0.5630110017418426 0.8368584406970561 -0.5690679762663802 0.8340502070538615 -0.5732065029012805 0.829189421839853 C -0.5771179238068485 0.824778641683431 -0.5791102297905992 0.8189908994514222 -0.578742493021857 0.8131071111515498 C -0.5783747562531152 0.8072233228516772 -0.5756773018668089 0.8017286906427975 -0.5712471178359704 0.7978392607949002 L -0.5279899244710597 0.7598573349135154 C -0.5030346757412698 0.7380226394171804 -0.4859763160187449 0.7085678319459882 -0.4794574636226234 0.6760559428895069 C -0.4676048875409282 0.625902343016456 -0.4396533152148394 0.581010423826071 -0.3998762855854352 0.548243747860084 C -0.3905796766380465 0.5402568199481314 -0.3765805365139956 0.5412663733224617 -0.36852612454048317 0.5505045767815951 C -0.3646688677237535 0.5549730180111806 -0.36275422414396163 0.560795963864664 -0.36320696350004167 0.566681575493706 C -0.36365970285612215 0.5725671871227483 -0.3664423894066846 0.5780287998892815 -0.3709376753900948 0.5818547378265476 C -0.40421112301523987 0.6091833273515279 -0.4273946891482834 0.64684999086288 -0.4368031579701155 0.6888673067780694 C -0.4457406499654124 0.7294167889265508 -0.467453971348331 0.7660283016232972 -0.498749870419517 0.7933176029518791 L -0.5418563418563274 0.8314502507613645 C -0.5459713346401427 0.8349692994518003 -0.5512126167177545 0.8368946683782699 -0.5566270908101996 0.8368762401729904 Z" fill="#47545e" transform="matrix(1,0,0,1,0,0)" fill-rule="nonzero"></path></g><g clip-path="url(&quot;#SvgjsClipPath10004b255e4c-af1a-44ac-8af1-a7873ac293c5&quot;)"><path d=" M -0.35752342378912916 0.6121498453747949 C -0.3630858689919527 0.6121867250494095 -0.36846139817659807 0.6101440239592438 -0.3725956165992028 0.606422412106967 L -0.8488769093975239 0.1856067888497165 C -0.853321978647132 0.1817186238067427 -0.856017660084132 0.1762069519281983 -0.8563578039210973 0.17031112542079624 C -0.8566979477580632 0.16441529891339357 -0.8546540038411412 0.15863018711058452 -0.8506855725347326 0.15425662780476368 L -0.6860972270487304 -0.032035675327744165 C -0.6779562956812879 -0.04118284893975442 -0.6639635915068212 -0.042057392950658745 -0.6547470660037777 -0.03399506039305335 L -0.29798826218933927 0.28086304740938045 C -0.2935431929397312 0.28475121245235424 -0.29084751150273114 0.29026288433089864 -0.2905073676657657 0.2961587108383007 C -0.2901672238288 0.30205453734570337 -0.29221116774572176 0.3078396491485125 -0.2961795990521303 0.31221320845433326 C -0.30006902890002696 0.3166433924851715 -0.305563661108907 0.31934084687147796 -0.31144744940877955 0.31970858364022037 C -0.31733123770865235 0.32007632040896217 -0.3231189799406611 0.31808401442521106 -0.3275297600970828 0.314172593519643 L -0.6675584298923403 0.014085234671080568 L -0.8032081651830014 0.16706799169332587 L -0.3603871404230432 0.5589450047552359 L -0.33024275480289655 0.5244296832201677 C -0.3263955587390701 0.519956209464769 -0.3209229463419183 0.5172020263546319 -0.3150379847616165 0.5167776300868215 C -0.3091530231813149 0.5163532338190118 -0.3033418555856404 0.5182936827950508 -0.29889259375794364 0.5221688542986569 C -0.2944529563672569 0.5260847486562472 -0.29175194150268435 0.5316047887113158 -0.2913844315020784 0.5375132187210601 C -0.29101692150147196 0.5434216487308047 -0.2930130597256009 0.5492338562028737 -0.2969332086926346 0.5536697372717102 L -0.3421497871228545 0.6050659147540609 C -0.34602077698199096 0.6093960367818133 -0.35142802397683126 0.612045587809285 -0.3572219799329279 0.6124512892309968 Z" fill="#47545e" transform="matrix(1,0,0,1,0,0)" fill-rule="nonzero"></path></g><g clip-path="url(&quot;#SvgjsClipPath10004b255e4c-af1a-44ac-8af1-a7873ac293c5&quot;)"><path d=" M -0.658062948421994 0.2282610945022242 C -0.675183610317601 0.22831629221295785 -0.6917192661474991 0.22203489048536645 -0.7044853022770201 0.21062662891443862 C -0.7184922264812936 0.19836746630667945 -0.7269680794198103 0.18098110130459427 -0.727997923060735 0.1623956119222027 C -0.7292669534087344 0.1437983754892303 -0.7229609636443464 0.1254783879840686 -0.7105141794010497 0.1116023221522548 C -0.6843324541716522 0.08364062124184904 -0.6408704176673103 0.08099453073930202 -0.6114898726388673 0.10557344502822641 C -0.5825795655175692 0.1312187108291725 -0.5798181342470461 0.1754016111575496 -0.6053102735867368 0.20444702986230762 C -0.6187016021427545 0.21953417290585125 -0.6378900611908347 0.22819639156184202 -0.658062948421994 0.2282610945022242 Z M -0.658062948421994 0.13240194823015689 C -0.6653772658778689 0.1324022870092879 -0.6723427634551014 0.13552853395340056 -0.6772046332907877 0.14099309813189842 C -0.6818250267165156 0.14607740516401524 -0.6841664315941458 0.15282936341578562 -0.6836856761991188 0.15968261721638932 C -0.6831787496720414 0.16651773114361124 -0.6800459500952059 0.1728913578688972 -0.6749438043692761 0.1774678047322763 C -0.6641567175116225 0.18639091950337772 -0.6482776832754602 0.1853323172209675 -0.6387705416250999 0.1750562538826646 C -0.6293647615134228 0.16448441929282487 -0.6303094649730252 0.14828950284249276 -0.6408806486185099 0.1388829911384878 C -0.6456106007552933 0.1346739061871845 -0.6517314802285747 0.13236515340340282 -0.658062948421994 0.13240194823015689 Z" fill="#47545e" transform="matrix(1,0,0,1,0,0)" fill-rule="nonzero"></path></g><g clip-path="url(&quot;#SvgjsClipPath10004b255e4c-af1a-44ac-8af1-a7873ac293c5&quot;)"><path d=" M -1.894434924632319 0.6121498453747949 L -1.8957914219852254 0.6121498453747949 C -1.9016026018506273 0.6118089075523314 -1.9070332505942407 0.6091478896679614 -1.9108636147952998 0.6047644708978592 L -1.95608019322552 0.5533682934155085 C -1.964159522110086 0.5441017506805981 -1.9632861936025527 0.5300613154441126 -1.9541208081602102 0.5218674104424552 C -1.944814292464882 0.513826019130143 -1.930770792681554 0.5147667320342891 -1.922619925187156 0.5239775174358652 L -1.8924755395670099 0.5586435608990341 L -1.4498052367351526 0.1667665478371242 L -1.5854549720258135 0.01378379081487828 L -1.9254836418210701 0.31387114966344076 C -1.9298944219774923 0.3177825705690094 -1.9356821642095003 0.3197748765527599 -1.9415659525093731 0.3194071397840181 C -1.9474497408092462 0.3190394030152763 -1.9529443730181257 0.3163419486289698 -1.956833802866023 0.3119117645981316 C -1.9607452237715917 0.3075009844417095 -1.9627375297553422 0.30171324220970075 -1.9623697929866004 0.29582945390982796 C -1.962002056217858 0.2899456656099551 -1.959304601831552 0.28445103340107536 -1.9548744178007138 0.2805616035531788 L -1.598266335914375 -0.03429650424925562 C -1.5938733100153404 -0.038246723632292104 -1.5880764146079198 -0.04026460054408865 -1.5821800512595112 -0.039896077834812846 C -1.5762836879111015 -0.03952755512553764 -1.5707831576865308 -0.03680358911174157 -1.566916174869423 -0.032337119183945856 L -1.402327829383421 0.153955183948562 C -1.3983593980770124 0.1583287432543828 -1.3963154541600904 0.1641138550571919 -1.3966555979970563 0.17000968156459456 C -1.396995741834022 0.17590550807199662 -1.3996914232710211 0.18141717995054102 -1.4041364925206299 0.1853053449935148 L -1.88026706339085 0.6061209682507656 C -1.8841244462413296 0.6097484484273274 -1.8891464354378182 0.6118854651066837 -1.894434924632319 0.6121498453747949 Z" fill="#de0000" transform="matrix(1,0,0,1,0,0)" fill-rule="nonzero"></path></g><g clip-path="url(&quot;#SvgjsClipPath10004b255e4c-af1a-44ac-8af1-a7873ac293c5&quot;)"><path d=" M -1.5938953999994547 0.2282610945022242 C -1.6140808332355019 0.22825442621110492 -1.633291974843468 0.21958196799950996 -1.6466480748347119 0.20444702986230762 C -1.6590201421712085 0.19052716674808634 -1.6653150044777578 0.17223950642647373 -1.6641318184943972 0.15365374009236094 C -1.6629349129812547 0.13508937639419305 -1.654359524345996 0.11777577528882838 -1.6403177538544806 0.10557344502822583 C -1.610874548793206 0.08093703053121648 -1.5672998681839982 0.08365217020443494 -1.541142725164197 0.11175304408035622 C -1.5287805107622436 0.12567068953375937 -1.522534269714484 0.14397489156067161 -1.523809703432613 0.16254633385030354 C -1.5249615368894833 0.1811326266485147 -1.533478488947921 0.19849201937908773 -1.5474730461444284 0.2107773508425389 C -1.5602836630389507 0.2220940226694903 -1.5768022426673283 0.22831530590615184 -1.5938953999994547 0.2282610945022242 Z M -1.5938953999994547 0.13240194823015689 C -1.6002217710504032 0.13239339601987285 -1.6063329229598735 0.13469847963484843 -1.6110776998029384 0.1388829911384884 C -1.6161671779333036 0.1433888632839101 -1.6192576340360885 0.14973243107383571 -1.6196688497046794 0.15651745672627515 C -1.6200975871682228 0.16329159935605353 -1.61782088933838 0.1699590715720234 -1.6133385287244486 0.1750562538826652 C -1.6037451321084966 0.18527973289744176 -1.5878752607410558 0.18633333431602683 -1.5770145440521721 0.1774678047322763 C -1.5718472634093095 0.17295753678999032 -1.568744328378409 0.1665339169014589 -1.56842339415043 0.1596826172163905 C -1.5679435319923551 0.15290173553587805 -1.5702267852031333 0.1462150654185989 -1.5747537151306612 0.14114382005999987 C -1.5795761475552736 0.13560725933455542 -1.5865531252081235 0.1324209230836477 -1.5938953999994547 0.13240194823015689 Z" fill="#de0000" transform="matrix(1,0,0,1,0,0)" fill-rule="nonzero"></path></g><g clip-path="url(&quot;#SvgjsClipPath10004b255e4c-af1a-44ac-8af1-a7873ac293c5&quot;)"><path d=" M -1.6953312576112485 0.8368762401729904 C -1.7008491746166334 0.8369677554640788 -1.7062100156197075 0.8350378527029721 -1.7104034504213221 0.8314502507613643 L -1.7538113657143342 0.7933176029518783 C -1.7850515808353613 0.766006570373322 -1.8067106579091523 0.72939744741689 -1.8156073562356345 0.6888673067780685 C -1.8250341082006987 0.6468207386504223 -1.8482764471095146 0.6091448011498287 -1.8816235607437557 0.5818547378265474 C -1.8860970344991552 0.578007541762721 -1.8888512176092922 0.5725349293655692 -1.8892756138771025 0.5666499677852673 C -1.8897000101449124 0.5607650062049656 -1.8877595611688731 0.5549538386092916 -1.8838843896652677 0.5505045767815946 C -1.875829977691755 0.5412663733224612 -1.8618308375677044 0.5402568199481308 -1.852534228620315 0.5482437478600837 C -1.812736581749021 0.5809660585334596 -1.7848221376873017 0.625883418238087 -1.7731037725112277 0.6760559428895063 C -1.7665849201151058 0.7085678319459876 -1.7495265603925814 0.7380226394171795 -1.7245713116627908 0.7598573349135143 L -1.6813141182978808 0.7978392607948996 C -1.676804503825113 0.8016635982121476 -1.6740236866177851 0.8071418713989128 -1.6735983813159554 0.8130394382509454 C -1.6731730760141261 0.8189370051029783 -1.675139071256619 0.8247575964952594 -1.6790532893763699 0.8291894218398524 C -1.6831700274652308 0.8339094344350303 -1.6890707840011656 0.8366959027992218 -1.6953312576112485 0.8368762401729904 Z" fill="#de0000" transform="matrix(1,0,0,1,0,0)" fill-rule="nonzero"></path></g><g clip-path="url(&quot;#SvgjsClipPath10004b255e4c-af1a-44ac-8af1-a7873ac293c5&quot;)"><path d=" M -0.6128463699917734 0.05462943333017825 C -0.6183938301985994 0.05473718025082433 -0.6237772309492364 0.05274532197308851 -0.6279185628018473 0.049052721990451215 C -0.6323487468326852 0.0451632921425546 -0.6350462012189915 0.039668659933674855 -0.6354139379877333 0.03378487163380203 C -0.6357816747564755 0.02790108333392982 -0.6337893687727247 0.02211334110192109 -0.6298779478671566 0.017702560945498436 L -0.5243725981966423 -0.10181992803838345 C -0.5161934376385442 -0.1108882273785608 -0.5022670734209531 -0.11175862514216066 -0.4930224371516896 -0.10377931310369322 C -0.4885773679020813 -0.09989114806072004 -0.48588168646508123 -0.09437947618217501 -0.485541542628116 -0.08848364967477296 C -0.4852013987911503 -0.08258782316737093 -0.48724534270807207 -0.07680271136456122 -0.49121377401448063 -0.07242915205874102 L -0.5967191236849947 0.04709333692514145 C -0.6007700390369863 0.05179576445254122 -0.6066403612436089 0.054538905670589805 -0.6128463699917734 0.05462943333017825 Z" fill="#47545e" transform="matrix(1,0,0,1,0,0)" fill-rule="nonzero"></path></g><g clip-path="url(&quot;#SvgjsClipPath10004b255e4c-af1a-44ac-8af1-a7873ac293c5&quot;)"><path d=" M -1.639111978429675 0.05462943333017825 C -1.6455285517201823 0.05471419542042971 -1.6516537103785316 0.05195511494369548 -1.6558421124488567 0.04709333692514203 L -1.7613474621193708 -0.07242915205874102 C -1.7652502308247677 -0.07681478796611572 -1.7672387616213985 -0.08257809279921083 -1.7668707937137094 -0.08843727409857255 C -1.76650282580602 -0.09429645539793427 -1.763808869764086 -0.09976569100928313 -1.7593880770540617 -0.10362859117559298 C -1.7502116863460317 -0.11172907844693895 -1.7362218529532585 -0.11092197267427914 -1.7280379160091082 -0.10181992803838405 L -1.622532566338594 0.017702560945498436 C -1.6186211454330255 0.022113341101919926 -1.616628839449275 0.027901083333928628 -1.6169965762180167 0.03378487163380145 C -1.6173643129867592 0.03966865993367369 -1.620061767373065 0.045163292142553435 -1.6244919514039033 0.04905272199045063 C -1.6285023741600901 0.052664795383762175 -1.6337147561456766 0.054653023563831005 -1.6391119784296744 0.05462943333017825 Z" fill="#de0000" transform="matrix(1,0,0,1,0,0)" fill-rule="nonzero"></path></g></g></g><defs><clipPath id="SvgjsClipPath1001"><path d=" M -1.9618076264933473 -0.10920530251532001 h 1.6718076264933472 v 1.36252623003064 h -1.6718076264933472 Z"></path></clipPath><clipPath id="SvgjsClipPath10004b255e4c-af1a-44ac-8af1-a7873ac293c5"><path d=" M -1.9618076264933473 -0.10920530251532001 L -0.29000000000000004 -0.10920530251532001 L -0.29000000000000004 1.25332092751532 L -1.9618076264933473 1.25332092751532 Z"></path></clipPath></defs></svg>